<svg width="41" height="40" viewBox="0 0 41 40" fill="none" xmlns="http://www.w3.org/2000/svg">
<path d="M0.899902 20.0002C0.899902 8.95446 9.85421 0 20.8999 0V0C31.9456 0 40.8999 8.95446 40.8999 20.0002V20.0002C40.8999 31.0459 31.9456 40.0003 20.8999 40.0003V40.0003C9.85421 40.0003 0.899902 31.0459 0.899902 20.0002V20.0002Z" fill="#1572B6"/>
<path fill-rule="evenodd" clip-rule="evenodd" d="M38.2824 20.0001C38.2824 10.4 30.5 2.61768 20.9 2.61768V2.61768V37.3825V37.3825C30.5 37.3825 38.2824 29.6001 38.2824 20.0001V20.0001Z" fill="#33A9DC"/>
<path d="M20.7083 17.6974H26.5563L26.9602 13.1719H20.7083V8.75244H31.7902L31.6841 9.93822L30.5977 22.1168H20.7083V17.6974Z" fill="white"/>
<path d="M20.7341 29.1748L20.7146 29.1806L15.7929 27.8516L15.4782 24.3269H11.0425L11.6614 31.2661L20.714 33.7786L20.7341 33.7728V29.1748Z" fill="#EBEBEB"/>
<path d="M26.1804 21.9302L25.6481 27.8485L20.719 29.179V33.7771L29.7789 31.2662L29.8454 30.5195L30.6142 21.9302H26.1804Z" fill="white"/>
<path d="M20.723 8.75244V13.1719H10.0482L9.95966 12.1788L9.75835 9.93822L9.65259 8.75244H20.723ZM20.708 17.698V22.1174H15.8483L15.7598 21.1243L15.5581 18.8838L15.4527 17.698H20.708Z" fill="#EBEBEB"/>
</svg>
