<svg width="50" height="50" viewBox="0 0 50 50" fill="none" xmlns="http://www.w3.org/2000/svg">
<path d="M46.875 16.875L41.6666 19.7396L36.4583 24.6875V41.6667H43.75C45.476 41.6667 46.875 40.2677 46.875 38.5417V16.875Z" fill="#4CAF50"/>
<path d="M3.125 16.875L6.88958 18.6562L13.5417 24.6875V41.6667H6.25C4.52396 41.6667 3.125 40.2677 3.125 38.5417V16.875Z" fill="#1E88E5"/>
<path d="M36.4583 11.6667L25 20.2604L13.5417 11.6667L12.5 17.7084L13.5417 24.6875L25 33.2813L36.4583 24.6875L37.5 17.7084L36.4583 11.6667Z" fill="#E53935"/>
<path d="M3.125 12.8104V16.875L13.5417 24.6875V11.6666L10.2875 9.2281C9.5125 8.64685 8.57083 8.33331 7.60208 8.33331C5.12917 8.33331 3.125 10.3375 3.125 12.8104Z" fill="#C62828"/>
<path d="M46.875 12.8104V16.875L36.4583 24.6875V11.6666L39.7125 9.2281C40.4875 8.64685 41.4291 8.33331 42.3979 8.33331C44.8708 8.33331 46.875 10.3375 46.875 12.8104Z" fill="#FBC02D"/>
</svg>
