<svg width="40" height="40" viewBox="0 0 40 40" fill="none" xmlns="http://www.w3.org/2000/svg">
<path d="M0 20.0002C0 8.95446 8.95431 0 20 0V0C31.0457 0 40 8.95446 40 20.0002V20.0002C40 31.0459 31.0457 40.0003 20 40.0003V40.0003C8.95431 40.0003 0 31.0459 0 20.0002V20.0002Z" fill="#E65026"/>
<path fill-rule="evenodd" clip-rule="evenodd" d="M37.3825 20.0001C37.3825 10.4 29.6001 2.61768 20.0001 2.61768V2.61768V37.3825V37.3825C29.6001 37.3825 37.3825 29.6001 37.3825 20.0001V20.0001Z" fill="#F16529"/>
<path d="M20.0002 17.3337H14.1809L13.7789 12.8302H20.0002V8.43286H8.9729L9.07835 9.61256L10.159 21.7314H20.0002V17.3337ZM20.0002 28.7546L19.9807 28.7601L15.0833 27.4372L14.7704 23.9304H10.3555L10.9716 30.8351L19.9801 33.3357L20.0002 33.3303V28.7546Z" fill="#EBEBEB"/>
<path d="M19.9849 17.3337V21.7314H25.3999L24.8896 27.4346L19.9849 28.7585V33.3338L29.0004 30.8351L29.0665 30.0922L30.0999 18.5147L30.2069 17.3337H29.0221H19.9849ZM19.9849 8.43286V12.8302H30.6073L30.6955 11.8422L30.8962 9.61256L31.0013 8.43286H19.9849Z" fill="white"/>
</svg>
