<svg width="40" height="40" viewBox="0 0 40 40" fill="none" xmlns="http://www.w3.org/2000/svg">
<path d="M0 20.0002C0 8.95446 8.95431 0 20 0V0C31.0457 0 40 8.95446 40 20.0002V20.0002C40 31.0459 31.0457 40.0003 20 40.0003V40.0003C8.95431 40.0003 0 31.0459 0 20.0002V20.0002Z" fill="#F0DB4F"/>
<path d="M35.249 28.054C35.01 26.5574 34.0393 25.3003 31.1639 24.1281C30.1651 23.6667 29.0515 23.3362 28.7197 22.5752C28.6019 22.1324 28.5862 21.8829 28.6608 21.6148C28.8748 20.7448 29.9078 20.4736 30.7265 20.723C31.2539 20.9007 31.753 21.3093 32.0541 21.961C33.4622 21.0443 33.4593 21.0503 34.4426 20.4204C34.0826 19.8593 33.8905 19.6004 33.6548 19.3604C32.8079 18.4094 31.654 17.9196 29.8085 17.9571L28.8472 18.0821C27.926 18.3161 27.0481 18.8022 26.5332 19.4539C24.9885 21.216 25.4291 24.2998 27.3087 25.5689C29.1605 26.9662 31.8808 27.284 32.2282 28.5906C32.5663 30.1902 31.0589 30.708 29.5606 30.5241C28.4564 30.2932 27.8423 29.729 27.1784 28.7031C25.9564 29.414 25.9564 29.414 24.7 30.1404C24.9979 30.7953 25.311 31.0917 25.8104 31.659C28.1741 34.0694 34.0891 33.9509 35.15 30.3026C35.193 30.1774 35.4787 29.3419 35.249 28.054ZM23.0278 18.1502H19.9757L19.9632 26.0831C19.9632 27.7701 20.05 29.3168 19.7771 29.7908C19.3306 30.7232 18.1735 30.6076 17.6462 30.4268C17.1095 30.1616 16.8366 29.7845 16.5204 29.2515C16.4336 29.0985 16.3684 28.98 16.3465 28.9709L13.865 30.4986C14.2776 31.35 14.8855 32.089 15.6641 32.5691C16.8272 33.2709 18.3904 33.486 20.0253 33.1087C21.0893 32.7971 22.0073 32.1517 22.488 31.1692C23.1829 29.8812 23.0338 28.3223 23.0276 26.598C23.0432 23.7849 23.0278 20.9723 23.0278 18.1502Z" fill="#323330"/>
</svg>
