<svg width="50" height="50" viewBox="0 0 50 50" fill="none" xmlns="http://www.w3.org/2000/svg">
<path d="M50 25C50 38.8071 38.8071 50 25 50C11.1929 50 0 38.8071 0 25C0 11.1929 11.1929 0 25 0C38.8071 0 50 11.1929 50 25Z" fill="#0288D1"/>
<path d="M11.3636 19.3182H17.0455V38.6364H11.3636V19.3182ZM14.1875 17.0455H14.1557C12.4602 17.0455 11.3636 15.7818 11.3636 14.2034C11.3636 12.5909 12.4943 11.3636 14.2205 11.3636C15.9489 11.3636 17.0136 12.5909 17.0455 14.2034C17.0455 15.7807 15.9489 17.0455 14.1875 17.0455ZM38.6364 38.6364H32.9545V28.2966C32.9545 25.7989 31.5625 24.0943 29.3273 24.0943C27.6216 24.0943 26.6989 25.2443 26.2511 26.3557C26.0875 26.7534 26.1364 27.8534 26.1364 28.4091V38.6364H20.4545V19.3182H26.1364V22.2909C26.9557 21.0227 28.2386 19.3182 31.5205 19.3182C35.5864 19.3182 38.6352 21.875 38.6352 27.5841L38.6364 38.6364Z" fill="white"/>
</svg>
