<svg width="196" height="39" viewBox="0 0 196 39" fill="none" xmlns="http://www.w3.org/2000/svg">
<path d="M7.56801 19.9H15.014V25H0.904007V1.03H7.56801V19.9Z" fill="#090A0B"/>
<path d="M24.1332 1.03V14.936C24.1332 16.228 24.4278 17.2253 25.0172 17.928C25.6292 18.6307 26.5472 18.982 27.7712 18.982C28.9952 18.982 29.9132 18.6307 30.5252 17.928C31.1598 17.2027 31.4772 16.2053 31.4772 14.936V1.03H38.1412V14.936C38.1412 17.1347 37.6765 19.016 36.7472 20.58C35.8178 22.1213 34.5485 23.2887 32.9392 24.082C31.3525 24.8527 29.5845 25.238 27.6352 25.238C25.6858 25.238 23.9405 24.8527 22.3992 24.082C20.8805 23.2887 19.6792 22.1213 18.7952 20.58C17.9338 19.0387 17.5032 17.1573 17.5032 14.936V1.03H24.1332Z" fill="#090A0B"/>
<path d="M40.9943 12.964C40.9943 10.6067 41.4816 8.51 42.4563 6.674C43.4536 4.81533 44.8589 3.376 46.6723 2.356C48.4856 1.31333 50.5709 0.791999 52.9283 0.791999C55.9203 0.791999 58.4363 1.59667 60.4763 3.206C62.5163 4.79266 63.8309 6.95733 64.4203 9.7H57.2463C56.8156 8.79333 56.2149 8.102 55.4443 7.626C54.6963 7.15 53.8236 6.912 52.8263 6.912C51.2849 6.912 50.0496 7.46733 49.1203 8.578C48.2136 9.666 47.7603 11.128 47.7603 12.964C47.7603 14.8227 48.2136 16.3073 49.1203 17.418C50.0496 18.506 51.2849 19.05 52.8263 19.05C53.8236 19.05 54.6963 18.812 55.4443 18.336C56.2149 17.86 56.8156 17.1687 57.2463 16.262H64.4203C63.8309 19.0047 62.5163 21.1807 60.4763 22.79C58.4363 24.3767 55.9203 25.17 52.9283 25.17C50.5709 25.17 48.4856 24.66 46.6723 23.64C44.8589 22.5973 43.4536 21.158 42.4563 19.322C41.4816 17.4633 40.9943 15.344 40.9943 12.964Z" fill="#090A0B"/>
<path d="M82.7399 21.09H74.2399L72.9479 25H65.9439L74.6819 1.03H82.3659L91.0699 25H84.0319L82.7399 21.09ZM81.0739 15.99L78.4899 8.238L75.9399 15.99H81.0739Z" fill="#090A0B"/>
<path d="M102.286 25.238C99.4979 25.238 97.2086 24.5807 95.4179 23.266C93.6272 21.9287 92.6639 20.0247 92.5279 17.554H99.6339C99.7019 18.3927 99.9512 19.0047 100.382 19.39C100.813 19.7753 101.368 19.968 102.048 19.968C102.66 19.968 103.159 19.8207 103.544 19.526C103.952 19.2087 104.156 18.778 104.156 18.234C104.156 17.5313 103.827 16.9873 103.17 16.602C102.513 16.2167 101.447 15.786 99.9739 15.31C98.4099 14.7887 97.1406 14.29 96.1659 13.814C95.2139 13.3153 94.3752 12.6013 93.6499 11.672C92.9472 10.72 92.5959 9.48466 92.5959 7.966C92.5959 6.42466 92.9812 5.11 93.7519 4.022C94.5226 2.91133 95.5879 2.07266 96.9479 1.506C98.3079 0.939331 99.8492 0.655998 101.572 0.655998C104.36 0.655998 106.581 1.31333 108.236 2.628C109.913 3.92 110.809 5.74467 110.922 8.102H103.68C103.657 7.37666 103.431 6.83266 103 6.47C102.592 6.10733 102.059 5.926 101.402 5.926C100.903 5.926 100.495 6.07333 100.178 6.368C99.8606 6.66266 99.7019 7.082 99.7019 7.626C99.7019 8.07933 99.8719 8.476 100.212 8.816C100.575 9.13333 101.017 9.41666 101.538 9.666C102.059 9.89266 102.83 10.1873 103.85 10.55C105.369 11.0713 106.615 11.5927 107.59 12.114C108.587 12.6127 109.437 13.3267 110.14 14.256C110.865 15.1627 111.228 16.3187 111.228 17.724C111.228 19.152 110.865 20.4327 110.14 21.566C109.437 22.6993 108.406 23.5947 107.046 24.252C105.709 24.9093 104.122 25.238 102.286 25.238Z" fill="#090A0B"/>
<path d="M127.498 19.9H134.944V25H120.834V1.03H127.498V19.9Z" fill="#090A0B"/>
<path d="M144.199 6.368V10.278H151.849V15.344H144.199V19.662H152.869V25H137.535V1.03H152.869V6.368H144.199Z" fill="#090A0B"/>
<path d="M171.326 21.09H162.826L161.534 25H154.53L163.268 1.03H170.952L179.656 25H172.618L171.326 21.09ZM169.66 15.99L167.076 8.238L164.526 15.99H169.66Z" fill="#090A0B"/>
<path d="M188.492 19.9H195.938V25H181.828V1.03H188.492V19.9Z" fill="#090A0B"/>
<path d="M8.7435 33.1271C8.7435 34.9567 8.32342 36.2263 7.48326 36.9358C6.64309 37.6453 5.60689 38 4.37466 38H2.16223V28.3521H4.22063C5.57422 28.3521 6.66643 28.6929 7.49726 29.3743C8.32809 30.0558 8.7435 31.3067 8.7435 33.1271ZM7.44125 33.1271C7.44125 32.0815 7.29655 31.2834 7.00716 30.7326C6.72711 30.1725 6.37704 29.8038 5.95696 29.6264C5.53688 29.4397 5.05612 29.3463 4.51468 29.3463H3.38047V37.0198H4.52869C5.35951 37.0198 6.05031 36.7351 6.60109 36.1656C7.16119 35.5869 7.44125 34.574 7.44125 33.1271Z" fill="#42494D"/>
<path d="M15.5853 32.609H19.17V33.6032H15.5853V37.0198H19.9822V38H14.3811V28.3521H19.8562L19.7161 29.3603H15.5853V32.609Z" fill="#42494D"/>
<path d="M31.753 35.3255C31.753 35.8856 31.613 36.3804 31.3329 36.8098C31.0529 37.2298 30.6468 37.5612 30.1147 37.804C29.5826 38.0373 28.9525 38.154 28.2243 38.154C27.5242 38.154 26.8847 38.0513 26.3059 37.846C25.7365 37.6313 25.2464 37.3279 24.8357 36.9358L25.5638 36.1096C25.9185 36.4457 26.3106 36.7024 26.74 36.8798C27.1788 37.0572 27.6782 37.1458 28.2383 37.1458C28.8731 37.1458 29.4052 36.9918 29.8346 36.6837C30.264 36.3757 30.4787 35.9323 30.4787 35.3535C30.4787 35.0268 30.4181 34.756 30.2967 34.5413C30.1754 34.3266 29.9606 34.1353 29.6526 33.9672C29.3539 33.7992 28.9291 33.6358 28.3783 33.4771C27.3328 33.1691 26.5533 32.8097 26.0399 32.3989C25.5265 31.9788 25.2697 31.4094 25.2697 30.6906C25.2697 30.2145 25.4004 29.7851 25.6618 29.4023C25.9232 29.0196 26.2919 28.7255 26.768 28.5202C27.2441 28.3055 27.7856 28.1981 28.3923 28.1981C29.0271 28.1981 29.5919 28.2915 30.0867 28.4782C30.5908 28.6649 31.0529 28.9403 31.4729 29.3043L30.7448 30.0885C30.082 29.5097 29.3119 29.2203 28.4344 29.2203C27.8742 29.2203 27.4122 29.3417 27.0481 29.5844C26.684 29.8271 26.502 30.1818 26.502 30.6486C26.502 30.9286 26.5767 31.1667 26.726 31.3627C26.8754 31.5588 27.1228 31.7408 27.4682 31.9088C27.8136 32.0769 28.299 32.2496 28.9244 32.4269C29.83 32.6883 30.5254 33.029 31.0109 33.4491C31.5056 33.8692 31.753 34.4947 31.753 35.3255Z" fill="#42494D"/>
<path d="M38.8189 32.609H42.4036V33.6032H38.8189V37.0198H43.2157V38H37.6147V28.3521H43.0897L42.9497 29.3603H38.8189V32.609Z" fill="#42494D"/>
<path d="M49.5955 29.5284C49.5955 29.5937 49.6235 29.9998 49.6795 30.7466C49.7355 31.4934 49.7635 32.3009 49.7635 33.1691V38H48.6293V28.3521H50.2816L53.7403 36.8658L53.7123 36.3617C53.6189 35.2135 53.5723 34.1539 53.5723 33.1831V28.3521H54.7065V38H52.9981L49.5955 29.5284Z" fill="#42494D"/>
<path d="M65.9172 28.3521H67.1354L63.9148 38H62.6545L59.4339 28.3521H60.7362L63.3127 36.6137L65.9172 28.3521Z" fill="#42494D"/>
<path d="M78.4441 33.1831C78.4441 34.686 78.1361 35.8903 77.5199 36.7958C76.9132 37.7013 76.0403 38.154 74.9014 38.154C73.7532 38.154 72.8757 37.7106 72.2689 36.8238C71.6621 35.9369 71.3587 34.728 71.3587 33.1971C71.3587 32.2169 71.4941 31.3487 71.7648 30.5926C72.0355 29.8364 72.437 29.2483 72.9691 28.8282C73.5012 28.4082 74.1453 28.1981 74.9014 28.1981C76.0403 28.1981 76.9132 28.6509 77.5199 29.5564C78.1361 30.4525 78.4441 31.6614 78.4441 33.1831ZM77.1839 33.1831C77.1839 31.8668 77.0018 30.8773 76.6378 30.2145C76.2737 29.5517 75.6949 29.2203 74.9014 29.2203C74.1079 29.2203 73.5292 29.5564 73.1651 30.2285C72.801 30.8913 72.619 31.8808 72.619 33.1971C72.619 34.504 72.801 35.4888 73.1651 36.1516C73.5385 36.8051 74.1173 37.1318 74.9014 37.1318C75.6949 37.1318 76.2737 36.8051 76.6378 36.1516C77.0018 35.4888 77.1839 34.4993 77.1839 33.1831Z" fill="#42494D"/>
<path d="M84.2218 28.3521H85.426V36.9218H89.8368L89.6828 38H84.2218V28.3521Z" fill="#42494D"/>
<path d="M100.767 28.3521H101.986L98.7651 38H97.5048L94.2842 28.3521H95.5865L98.163 36.6137L100.767 28.3521Z" fill="#42494D"/>
<path d="M108.52 32.609H112.104V33.6032H108.52V37.0198H112.916V38H107.315V28.3521H112.79L112.65 29.3603H108.52V32.609Z" fill="#42494D"/>
<path d="M124.911 33.1271C124.911 34.9567 124.491 36.2263 123.651 36.9358C122.811 37.6453 121.775 38 120.542 38H118.33V28.3521H120.388C121.742 28.3521 122.834 28.6929 123.665 29.3743C124.496 30.0558 124.911 31.3067 124.911 33.1271ZM123.609 33.1271C123.609 32.0815 123.464 31.2834 123.175 30.7326C122.895 30.1725 122.545 29.8038 122.125 29.6264C121.705 29.4397 121.224 29.3463 120.682 29.3463H119.548V37.0198H120.696C121.527 37.0198 122.218 36.7351 122.769 36.1656C123.329 35.5869 123.609 34.574 123.609 33.1271Z" fill="#42494D"/>
<path d="M136.528 33.1831C136.528 34.686 136.22 35.8903 135.604 36.7958C134.997 37.7013 134.124 38.154 132.985 38.154C131.837 38.154 130.96 37.7106 130.353 36.8238C129.746 35.9369 129.443 34.728 129.443 33.1971C129.443 32.2169 129.578 31.3487 129.849 30.5926C130.119 29.8364 130.521 29.2483 131.053 28.8282C131.585 28.4082 132.229 28.1981 132.985 28.1981C134.124 28.1981 134.997 28.6509 135.604 29.5564C136.22 30.4525 136.528 31.6614 136.528 33.1831ZM135.268 33.1831C135.268 31.8668 135.086 30.8773 134.722 30.2145C134.358 29.5517 133.779 29.2203 132.985 29.2203C132.192 29.2203 131.613 29.5564 131.249 30.2285C130.885 30.8913 130.703 31.8808 130.703 33.1971C130.703 34.504 130.885 35.4888 131.249 36.1516C131.622 36.8051 132.201 37.1318 132.985 37.1318C133.779 37.1318 134.358 36.8051 134.722 36.1516C135.086 35.4888 135.268 34.4993 135.268 33.1831Z" fill="#42494D"/>
<path d="M147.921 31.0687C147.921 31.7595 147.706 32.3336 147.277 32.791C146.847 33.2391 146.278 33.5518 145.568 33.7292L148.439 38H146.982L144.336 33.8692H143.034V38H141.83V28.3521H144.294C145.489 28.3521 146.39 28.5809 146.997 29.0383C147.613 29.4957 147.921 30.1725 147.921 31.0687ZM146.632 31.0687C146.632 30.4525 146.455 30.0091 146.1 29.7384C145.746 29.4677 145.19 29.3323 144.434 29.3323H143.034V32.917H144.448C145.167 32.917 145.708 32.7723 146.072 32.4829C146.446 32.1842 146.632 31.7128 146.632 31.0687Z" fill="#42494D"/>
<path d="M170.51 38H168.914L167.808 30.7186L166.687 38H165.049L163.705 28.3521H164.923L165.945 36.6697L167.107 29.4724H168.592L169.698 36.6697L170.846 28.3521H171.966L170.51 38Z" fill="#42494D"/>
<path d="M178.22 32.609H181.805V33.6032H178.22V37.0198H182.617V38H177.016V28.3521H182.491L182.351 29.3603H178.22V32.609Z" fill="#42494D"/>
<path d="M194.43 35.2555C194.43 36.2263 194.08 36.9265 193.38 37.3559C192.689 37.7853 191.835 38 190.817 38H188.213V28.3521H190.593C191.573 28.3521 192.385 28.5435 193.029 28.9263C193.683 29.2997 194.01 29.9204 194.01 30.7886C194.01 31.3674 193.837 31.8341 193.492 32.1889C193.146 32.5343 192.717 32.7677 192.203 32.889C193.688 33.1411 194.43 33.9299 194.43 35.2555ZM192.763 30.8586C192.763 30.3265 192.6 29.9438 192.273 29.7104C191.947 29.4677 191.48 29.3463 190.873 29.3463H189.431V32.4549H190.985C192.171 32.4549 192.763 31.9228 192.763 30.8586ZM193.142 35.2975C193.142 34.616 192.955 34.1399 192.581 33.8692C192.217 33.5985 191.713 33.4631 191.069 33.4631H189.431V36.9918H191.027C191.615 36.9918 192.115 36.8704 192.525 36.6277C192.936 36.385 193.142 35.9416 193.142 35.2975Z" fill="#42494D"/>
</svg>
