<svg width="30" height="30" viewBox="0 0 30 30" fill="none" xmlns="http://www.w3.org/2000/svg">
<path d="M27.8571 29.3724L23.0769 24.5922V28.5165C23.0769 28.5165 23.0769 29.1341 21.6667 29.1667C20.9341 29.1836 20.9341 28.5165 20.9341 28.5165V20.9341H28.5165C28.5165 20.9341 29.1667 20.933 29.1667 21.6667C29.1667 23.0769 28.5165 23.0769 28.5165 23.0769H24.5922L29.3724 27.8571C29.3724 27.8571 30 28.3333 29.1667 29.1667C28.3333 30 27.8571 29.3724 27.8571 29.3724ZM15 30C12.9437 30 11.0041 29.6096 9.18132 28.8288C7.35852 28.0481 5.76305 26.9738 4.39492 25.6059C3.02679 24.2381 1.95233 22.6429 1.17157 20.8203C0.390522 18.9978 0 17.0587 0 15.0029C0 12.9194 0.390385 10.9728 1.17115 9.16319C1.95192 7.35357 3.02624 5.76456 4.39409 4.39615C5.76195 3.02775 7.35714 1.95288 9.17967 1.17157C11.0022 0.390522 12.9413 0 14.9971 0C17.0806 0 19.0272 0.390522 20.8368 1.17157C22.6464 1.95233 24.2354 3.02679 25.6038 4.39492C26.9723 5.76305 28.0471 7.35165 28.8284 9.16071C29.6095 10.9698 30 12.9162 30 15C30 15.4418 29.9765 15.8834 29.9295 16.3249C29.8826 16.7666 29.8257 17.2084 29.7589 17.6501C29.7589 17.6501 29.7589 18.3659 28.3333 18.3333C27.5497 18.3154 27.5497 17.6501 27.5497 17.6501C27.6385 17.2084 27.7118 16.7666 27.7698 16.3249C27.828 15.8834 27.8571 15.4418 27.8571 15C27.8571 14.456 27.8176 13.9122 27.7385 13.3685C27.6591 12.8246 27.5486 12.2843 27.4071 11.7478H20.2492C20.3253 12.2569 20.3729 12.7834 20.3922 13.3273C20.4111 13.871 20.4206 14.4011 20.4206 14.9176C20.4206 15.3868 20.4109 15.8422 20.3913 16.2837C20.3716 16.7254 20.3559 17.1809 20.3444 17.6501C20.3444 17.6501 20.3461 18.3333 19.1667 18.3333C18.3333 18.3333 18.1603 17.6501 18.1603 17.6501C18.1721 17.1809 18.1878 16.7185 18.2073 16.263C18.2268 15.8078 18.2365 15.3456 18.2365 14.8764C18.2365 14.3599 18.2271 13.8367 18.2081 13.3067C18.1889 12.7765 18.1413 12.2569 18.0655 11.7478H11.9345C11.8587 12.2843 11.8111 12.825 11.7919 13.3698C11.7729 13.9146 11.7635 14.4593 11.7635 15.0041C11.7635 15.5486 11.7729 16.0919 11.7919 16.6339C11.8111 17.1762 11.8587 17.7157 11.9345 18.2522H16.3059C16.3059 18.2522 16.6667 18.3333 16.6667 19.1667C16.6667 20.3951 16.3059 20.3951 16.3059 20.3951H12.131C12.3865 21.7467 12.7346 23.0595 13.1753 24.3334C13.6162 25.607 14.2245 26.7974 15 27.9045C15.4418 27.9045 15.8902 27.8824 16.3455 27.8382C16.801 27.7937 17.2359 27.7027 17.6501 27.5654C17.6501 27.5654 18.3333 27.5 18.3333 28.3333C18.3333 29.1667 17.6501 29.7433 17.6501 29.7433C17.2359 29.8806 16.801 29.9577 16.3455 29.9745C15.8902 29.9915 15.4418 30 15 30ZM2.59286 18.2522H9.75082C9.67472 17.7431 9.62706 17.2162 9.60783 16.6714C9.58887 16.1266 9.5794 15.5956 9.5794 15.0783C9.5794 14.5063 9.58887 13.9493 9.60783 13.4073C9.62706 12.865 9.67472 12.3118 9.75082 11.7478H2.59286C2.45137 12.2843 2.34093 12.825 2.26154 13.3698C2.18242 13.9146 2.14286 14.4593 2.14286 15.0041C2.14286 15.5486 2.18242 16.0919 2.26154 16.6339C2.34093 17.1762 2.45137 17.7157 2.59286 18.2522ZM3.34121 9.60495H9.95563C10.157 8.32637 10.4453 7.08008 10.8206 5.86607C11.1956 4.65178 11.7033 3.49423 12.3437 2.39341C10.3571 2.8033 8.57514 3.63956 6.99766 4.9022C5.41992 6.16484 4.2011 7.73242 3.34121 9.60495ZM12.3849 27.6066C11.7214 26.4951 11.2063 25.3323 10.8396 24.1183C10.4728 22.9043 10.1806 21.6632 9.96305 20.3951H3.34121C4.2011 22.2569 5.42253 23.8191 7.00549 25.0817C8.58846 26.3446 10.3816 27.1863 12.3849 27.6066ZM12.131 9.60495H17.869C17.628 8.27995 17.286 6.99327 16.8429 5.74492C16.3997 4.49684 15.7854 3.32156 15 2.21909C14.2074 3.29876 13.5982 4.46841 13.1724 5.72802C12.7466 6.98764 12.3995 8.27995 12.131 9.60495ZM20.0369 9.60495H26.6588C25.7989 7.73242 24.5801 6.16223 23.0023 4.89437C21.4249 3.62624 19.6429 2.79258 17.6563 2.39341C18.2648 3.50495 18.7514 4.67033 19.1159 5.88956C19.4805 7.10907 19.7875 8.34753 20.0369 9.60495Z" fill="white"/>
</svg>
